<svg width="17" height="17" viewBox="0 0 17 17" fill="none" xmlns="http://www.w3.org/2000/svg">
<g id="material-symbols:energy-program-saving-outline" clip-path="url(#clip0_34_317)">
<path id="Vector" d="M8.14581 12.0417C9.03123 12.0417 9.78395 11.7317 10.404 11.1116C11.024 10.4916 11.3338 9.73912 11.3333 8.85418V5.66668H8.14581C7.2604 5.66668 6.50767 5.97669 5.88765 6.59672C5.26762 7.21675 4.95784 7.96923 4.95831 8.85418C4.95831 9.16112 4.99963 9.45626 5.08227 9.73959C5.16491 10.0229 5.28887 10.2945 5.45415 10.5542L5.17081 10.8375C5.04095 10.9674 4.97602 11.1327 4.97602 11.3333C4.97602 11.534 5.04095 11.6993 5.17081 11.8292C5.30067 11.959 5.46595 12.024 5.66665 12.024C5.86734 12.024 6.03262 11.959 6.16248 11.8292L6.44581 11.5458C6.70554 11.7111 6.97706 11.8351 7.2604 11.9177C7.54373 12.0004 7.83887 12.0417 8.14581 12.0417ZM8.14581 10.625C8.03956 10.625 7.93331 10.6132 7.82706 10.5896C7.72081 10.566 7.61456 10.5365 7.50831 10.5011L8.99581 8.99584C9.12567 8.86598 9.19061 8.70071 9.19061 8.50001C9.19061 8.29932 9.12567 8.13404 8.99581 8.00418C8.86595 7.87432 8.70067 7.80939 8.49998 7.80939C8.29929 7.80939 8.13401 7.87432 8.00415 8.00418L6.49894 9.49168C6.46352 9.38543 6.43401 9.27918 6.4104 9.17293C6.38679 9.06668 6.37498 8.96043 6.37498 8.85418C6.37498 8.35834 6.54616 7.93925 6.88852 7.59689C7.23088 7.25452 7.64998 7.08334 8.14581 7.08334H9.91665V8.85418C9.91665 9.35001 9.74547 9.76911 9.4031 10.1115C9.06074 10.4538 8.64165 10.625 8.14581 10.625ZM8.49998 16.2917L6.05623 14.3792L2.99269 14.0073L2.62081 10.9438L0.708313 8.50001L2.62081 6.05626L2.99269 2.99272L6.05623 2.62084L8.49998 0.708344L10.9437 2.62084L14.0073 2.99272L14.3791 6.05626L16.2916 8.50001L14.3791 10.9438L14.0073 14.0073L10.9437 14.3792L8.49998 16.2917ZM8.49998 14.4854L10.3771 13.0333L12.75 12.7323L13.0333 10.3771L14.4854 8.50001L13.0333 6.62293L12.7323 4.26772L10.3771 3.96668L8.49998 2.51459L6.6229 3.96668L4.24998 4.26772L3.96665 6.62293L2.51456 8.50001L3.96665 10.3771L4.26769 12.75L6.6229 13.0333L8.49998 14.4854Z" fill="white"/>
</g>
<defs>
<clipPath id="clip0_34_317">
<rect width="17" height="17" fill="white"/>
</clipPath>
</defs>
</svg>
