<svg width="18" height="21" viewBox="0 0 18 21" fill="none" xmlns="http://www.w3.org/2000/svg">
<g id="Vector">
<path fill-rule="evenodd" clip-rule="evenodd" d="M9.00011 6.10352e-05C9.47935 0.00258418 9.94313 0.16989 10.3136 0.473895C10.6841 0.7779 10.9387 1.2001 11.0348 1.66962C11.812 1.88784 12.5381 2.22245 13.192 2.65612C13.9665 3.16599 13.1969 4.32568 12.4258 3.81165C11.764 3.36929 11.0231 3.0588 10.2436 2.8972C9.8626 2.82654 9.652 2.46353 9.6901 2.07697C9.7289 1.68209 9.39568 1.38005 9.00011 1.38005C8.60454 1.38005 8.27409 1.68071 8.30457 2.09013C8.33298 2.47808 8.11822 2.82446 7.75105 2.89582C4.91557 3.47635 2.76384 5.99663 2.76384 9.006V12.8308C2.76384 12.9385 2.73869 13.0448 2.69041 13.1411L1.45244 15.6212C1.20997 16.1068 1.52865 16.6216 2.07247 16.6222H15.925C16.4702 16.6236 16.7909 16.1082 16.5471 15.6212L15.3043 13.1411C15.256 13.0448 15.2308 12.9385 15.2308 12.8308V9.006C15.2311 7.78469 14.8695 6.59067 14.1917 5.57474C13.679 4.80369 14.8373 4.03611 15.3472 4.80854C16.1746 6.05206 16.6162 7.51235 16.6164 9.006V12.6673L17.7871 15.0019C18.4647 16.359 17.4401 18.0099 15.9236 18.0078H12.3905C12.0677 19.5845 10.6655 20.7802 8.99734 20.7802C7.32916 20.7802 5.92701 19.5845 5.60418 18.0078H2.06969C0.556004 18.0057 -0.463053 16.3562 0.213085 15.0012L1.37831 12.6673V9.006C1.37831 5.51932 3.74619 2.56329 6.9613 1.66547C7.05939 1.19655 7.31529 0.775431 7.68631 0.472361C8.05733 0.169291 8.52105 0.00258965 9.00011 6.10352e-05ZM10.9495 18.0078H7.04513C7.18536 18.4136 7.44892 18.7655 7.79895 19.0141C8.14898 19.2628 8.56797 19.3959 8.99734 19.3947C9.4267 19.3959 9.8457 19.2628 10.1957 19.0141C10.5458 18.7655 10.8093 18.4136 10.9495 18.0078Z" fill="white"/>
<path fill-rule="evenodd" clip-rule="evenodd" d="M9.00011 6.10352e-05C9.47935 0.00258418 9.94313 0.16989 10.3136 0.473895C10.6841 0.7779 10.9387 1.2001 11.0348 1.66962C11.812 1.88784 12.5381 2.22245 13.192 2.65612C13.9665 3.16599 13.1969 4.32568 12.4258 3.81165C11.764 3.36929 11.0231 3.0588 10.2436 2.8972C9.8626 2.82654 9.652 2.46353 9.6901 2.07697C9.7289 1.68209 9.39568 1.38005 9.00011 1.38005C8.60454 1.38005 8.27409 1.68071 8.30457 2.09013C8.33298 2.47808 8.11822 2.82446 7.75105 2.89582C4.91557 3.47635 2.76384 5.99663 2.76384 9.006V12.8308C2.76384 12.9385 2.73869 13.0448 2.69041 13.1411L1.45244 15.6212C1.20997 16.1068 1.52865 16.6216 2.07247 16.6222H15.925C16.4702 16.6236 16.7909 16.1082 16.5471 15.6212L15.3043 13.1411C15.256 13.0448 15.2308 12.9385 15.2308 12.8308V9.006C15.2311 7.78469 14.8695 6.59067 14.1917 5.57474C13.679 4.80369 14.8373 4.03611 15.3472 4.80854C16.1746 6.05206 16.6162 7.51235 16.6164 9.006V12.6673L17.7871 15.0019C18.4647 16.359 17.4401 18.0099 15.9236 18.0078H12.3905C12.0677 19.5845 10.6655 20.7802 8.99734 20.7802C7.32916 20.7802 5.92701 19.5845 5.60418 18.0078H2.06969C0.556004 18.0057 -0.463053 16.3562 0.213085 15.0012L1.37831 12.6673V9.006C1.37831 5.51932 3.74619 2.56329 6.9613 1.66547C7.05939 1.19655 7.31529 0.775431 7.68631 0.472361C8.05733 0.169291 8.52105 0.00258965 9.00011 6.10352e-05ZM10.9495 18.0078H7.04513C7.18536 18.4136 7.44892 18.7655 7.79895 19.0141C8.14898 19.2628 8.56797 19.3959 8.99734 19.3947C9.4267 19.3959 9.8457 19.2628 10.1957 19.0141C10.5458 18.7655 10.8093 18.4136 10.9495 18.0078Z" fill="black" fill-opacity="0.84"/>
</g>
</svg>
