<svg width="24" height="24" viewBox="0 0 24 24" fill="none" xmlns="http://www.w3.org/2000/svg">
<g id="mdi:water-outline">
<path id="Vector" d="M12 3.76999L11.25 4.60999C11.25 4.60999 9.97 6.05999 8.68 7.93999C7.39 9.81999 6 12.07 6 14.23C6 15.8213 6.63214 17.3474 7.75736 18.4726C8.88258 19.5978 10.4087 20.23 12 20.23C13.5913 20.23 15.1174 19.5978 16.2426 18.4726C17.3679 17.3474 18 15.8213 18 14.23C18 12.07 16.61 9.81999 15.32 7.93999C14.5243 6.78422 13.6664 5.67258 12.75 4.60999L12 3.76999ZM12 6.89999C12.44 7.41999 12.84 7.84999 13.68 9.06999C14.89 10.83 16 13.07 16 14.23C16 16.45 14.22 18.23 12 18.23C9.78 18.23 8 16.45 8 14.23C8 13.07 9.11 10.83 10.32 9.06999C11.16 7.84999 11.56 7.41999 12 6.89999Z" fill="white"/>
</g>
</svg>
